<svg width="54" height="11" viewBox="0 0 54 11" fill="none" xmlns="http://www.w3.org/2000/svg">
<path d="M0.743413 9.8735L0.689817 0.470647L2.40631 0.460863L2.43422 5.35792L1.9663 5.1965L5.94027 0.440719L8.09851 0.428417L4.37531 4.89247L4.46937 3.68026L8.26569 9.83062L6.24629 9.84213L3.69844 5.71674L2.44487 7.22587L2.45991 9.86371L0.743413 9.8735ZM9.56519 9.82321L9.52606 2.95724L11.1794 2.94782L11.2186 9.81379L9.56519 9.82321ZM9.52167 2.18734L9.5116 0.420363L11.165 0.410939L11.1751 2.17792L9.52167 2.18734ZM16.2701 9.86073C15.496 9.86514 14.8932 9.65821 14.4616 9.23995C14.0385 8.81323 13.8247 8.21281 13.8203 7.43871L13.803 4.4096L12.6166 4.41636L12.6082 2.93967L12.7344 2.93895C13.071 2.93703 13.3313 2.8472 13.5154 2.66945C13.6995 2.49169 13.7906 2.23453 13.7887 1.89796L13.7857 1.36787L15.4391 1.35845L15.448 2.92348L17.0257 2.91449L17.0341 4.39118L15.4564 4.40017L15.4732 7.34093C15.4745 7.56811 15.5134 7.76143 15.5901 7.92086C15.6751 8.08025 15.802 8.20154 15.9708 8.28472C16.148 8.36786 16.3712 8.40866 16.6405 8.40712C16.6994 8.40679 16.7666 8.4022 16.8423 8.39335C16.9264 8.38446 17.0063 8.37559 17.082 8.36674L17.09 9.78032C16.9723 9.79782 16.8378 9.81542 16.6864 9.83311C16.5351 9.8508 16.3963 9.86001 16.2701 9.86073ZM18.1166 9.77447L21.3067 0.353131L23.528 0.340469L26.8253 9.72483L24.9573 9.73548L24.2769 7.71989L20.642 7.74061L19.9719 9.7639L18.1166 9.77447ZM21.1256 6.22325L23.776 6.20814L22.1843 1.53457L22.6639 1.53183L21.1256 6.22325ZM30.2108 9.70553L26.8757 0.321388L28.7437 0.31074L31.3628 8.08339L30.9968 8.08548L33.5271 0.283475L35.3951 0.272827L32.1798 9.69431L30.2108 9.70553ZM38.56 9.65794L38.515 1.76965L36.0791 1.78353L36.0705 0.268977L42.6336 0.231568L42.6422 1.74612L40.2442 1.75979L40.2891 9.64809L38.56 9.65794ZM48.3798 9.75343C47.6899 9.75736 47.0455 9.63903 46.4467 9.39842C45.8479 9.15782 45.3243 8.82001 44.8758 8.38502C44.4274 7.95002 44.0753 7.43875 43.8195 6.85119C43.5721 6.25518 43.4464 5.61219 43.4425 4.92223C43.4385 4.22385 43.5568 3.57947 43.7975 2.98908C44.0381 2.3987 44.3802 1.88347 44.8236 1.44339C45.2671 1.00331 45.7869 0.663768 46.3829 0.424766C46.9789 0.177349 47.6261 0.0516506 48.3245 0.0476699C49.0229 0.0436892 49.6715 0.162002 50.2703 0.402608C50.8691 0.643214 51.3927 0.981015 51.8411 1.41601C52.2895 1.84259 52.6374 2.34968 52.8848 2.93729C53.1406 3.52484 53.2705 4.16781 53.2744 4.86618C53.2784 5.55615 53.1558 6.20055 52.9068 6.7994C52.6577 7.38983 52.3115 7.90508 51.868 8.34516C51.4246 8.78524 50.9048 9.12899 50.3088 9.37641C49.7212 9.62378 49.0782 9.74945 48.3798 9.75343ZM48.3709 8.18839C48.8337 8.18576 49.2582 8.1034 49.6443 7.94132C50.0304 7.77083 50.3656 7.53752 50.65 7.2414C50.9429 6.94522 51.1638 6.59476 51.313 6.19002C51.4706 5.78523 51.548 5.34723 51.5453 4.87604C51.5426 4.40484 51.4602 3.97197 51.2981 3.57741C51.1443 3.1744 50.9194 2.82648 50.6232 2.53366C50.3354 2.23238 49.9975 2.00291 49.6095 1.84525C49.2216 1.68758 48.7962 1.61007 48.3334 1.61271C47.8791 1.6153 47.4588 1.69763 47.0727 1.85971C46.6865 2.02178 46.3471 2.25511 46.0543 2.5597C45.7699 2.85583 45.5489 3.20629 45.3913 3.61108C45.2337 4.00746 45.1563 4.44125 45.159 4.91244C45.1616 5.38364 45.2441 5.82072 45.4062 6.22369C45.5684 6.62666 45.7934 6.97457 46.0811 7.26744C46.3773 7.56026 46.7194 7.78971 47.1074 7.95578C47.4954 8.11345 47.9165 8.19098 48.3709 8.18839Z" fill="#82309F"/>
</svg>
