<svg class="svg-bg" viewBox="0 0 163 140" fill="none" xmlns="http://www.w3.org/2000/svg"
        xmlns:xlink="http://www.w3.org/1999/xlink" id="i57pq">
        <g clip-path="url(#clip0_3_17243)">
          <rect x="0.0673828" y="1" width="161.216" height="138.021" rx="3.94421"
            transform="rotate(-0.326582 0.0673828 1)" fill="#B968D5"></rect>
          <path
            d="M-0.835793 119.333L-10.8311 95.7247L-0.970682 95.6685L8.88969 95.6123L18.885 119.221L9.15947 142.942L-0.700903 142.998L-10.5613 143.055L-0.835793 119.333Z"
            fill="white" fill-opacity="0.06"></path>
          <path
            d="M35.0568 119.129L25.0615 95.5201L34.9219 95.4639L44.7823 95.4077L54.7775 119.016L45.052 142.737L35.1917 142.794L25.3313 142.85L35.0568 119.129Z"
            fill="white" fill-opacity="0.06"></path>
          <path
            d="M70.9484 118.924L60.9531 95.3156L70.8135 95.2593L80.6739 95.2031L90.6691 118.812L80.9436 142.533L71.0833 142.589L61.2229 142.645L70.9484 118.924Z"
            fill="white" fill-opacity="0.06"></path>
          <path
            d="M106.84 118.72L96.8447 95.111L106.705 95.0548L116.565 94.9986L126.561 118.607L116.835 142.328L106.975 142.385L97.1145 142.441L106.84 118.72Z"
            fill="white" fill-opacity="0.06"></path>
          <path
            d="M142.732 118.515L132.736 94.9063L142.597 94.8501L152.457 94.7939L162.452 118.403L152.727 142.124L142.866 142.18L133.006 142.236L142.732 118.515Z"
            fill="white" fill-opacity="0.06"></path>
          <path
            d="M16.6437 71.9025L6.64844 48.2938L16.5088 48.2376L26.3692 48.1814L36.3644 71.7901L26.639 95.5112L16.7786 95.5674L6.91822 95.6236L16.6437 71.9025Z"
            fill="white" fill-opacity="0.06"></path>
          <path
            d="M52.5353 71.6978L42.54 48.0891L52.4004 48.0329L62.2608 47.9767L72.256 71.5854L62.5306 95.3065L52.6702 95.3627L42.8098 95.4189L52.5353 71.6978Z"
            fill="white" fill-opacity="0.06"></path>
          <path
            d="M88.4269 71.4933L78.4316 47.8846L88.292 47.8284L98.1524 47.7722L108.148 71.3809L98.4222 95.102L88.5618 95.1582L78.7014 95.2144L88.4269 71.4933Z"
            fill="white" fill-opacity="0.06"></path>
          <path
            d="M124.319 71.2887L114.323 47.6801L124.184 47.6238L134.044 47.5676L144.039 71.1763L134.314 94.8974L124.453 94.9536L114.593 95.0098L124.319 71.2887Z"
            fill="white" fill-opacity="0.06"></path>
          <path
            d="M160.21 71.084L150.215 47.4753L160.075 47.4191L169.936 47.3629L179.931 70.9716L170.205 94.6927L160.345 94.7489L150.485 94.8051L160.21 71.084Z"
            fill="white" fill-opacity="0.06"></path>
          <path
            d="M-1.76939 24.6761L-11.7646 1.06738L-1.90428 1.01118L7.9561 0.954975L17.9514 24.5637L8.22588 48.2848L-1.6345 48.341L-11.4949 48.3972L-1.76939 24.6761Z"
            fill="white" fill-opacity="0.06"></path>
          <path
            d="M34.1222 24.4715L24.127 0.862793L33.9873 0.806589L43.8477 0.750385L53.843 24.3591L44.1175 48.0802L34.2571 48.1364L24.3967 48.1926L34.1222 24.4715Z"
            fill="white" fill-opacity="0.06"></path>
          <path
            d="M70.0138 24.2669L60.0186 0.658203L69.8789 0.601999L79.7393 0.545795L89.7346 24.1545L80.0091 47.8756L70.1487 47.9318L60.2883 47.988L70.0138 24.2669Z"
            fill="white" fill-opacity="0.06"></path>
          <path
            d="M105.906 24.0623L95.9111 0.453613L105.772 0.397409L115.632 0.341205L125.627 23.9499L115.902 47.671L106.041 47.7272L96.1809 47.7834L105.906 24.0623Z"
            fill="white" fill-opacity="0.06"></path>
          <path
            d="M141.798 23.8578L131.803 0.249146L141.663 0.192942L151.523 0.136738L161.519 23.7454L151.793 47.4665L141.933 47.5227L132.073 47.5789L141.798 23.8578Z"
            fill="white" fill-opacity="0.06"></path>
          <rect width="79.6322" height="26.4566"
            transform="matrix(-0.999984 0.00569989 0.00569989 0.999984 154.068 107.77)" fill="url(#pattern0_3_17243)">
          </rect>
        </g>
      </svg>